<svg xmlns="http://www.w3.org/2000/svg" fill="none" viewBox="0 0 14 14"><path fill="#777" d="M13.9941 13.6513l-.0914-9.74595c-.0228-.15691-.2054-.27895-.4109-.27895h-2.534v-.59278C10.9578 1.3599 9.17718 0 6.98562 0 4.79405 0 3.01341 1.3599 3.01341 3.03362v.59278H.410918c-.20546 0-.3880892.12204-.410918.27895 0 0 .0285402 9.65875.00571141 9.74595-.02282881.0872.09131519.2441.09131519.2441S.279657 14 .393801 14H13.606c.1141 0 .2283-.0349.2967-.1046.0685-.0697.1142-.1569.0914-.2441zm-3.4472-8.264c.2055 0 .3653.12204.3653.27895s-.1598.27896-.3653.27896c-.2054 0-.3652-.12205-.3652-.27896s.1598-.27895.3652-.27895zM3.83524 3.03362c0-1.32503 1.41539-2.405974 3.15038-2.405974 1.73499 0 3.15038 1.080944 3.15038 2.405974v.59278H3.83524v-.59278zM3.42432 5.3873c.20546 0 .36526.12204.36526.27895s-.1598.27896-.36526.27896c-.20545 0-.36526-.12205-.36526-.27896s.15981-.27895.36526-.27895zM.776179 13.3549V4.23661H3.01341v.57535c-.45658.12204-.77618.4533-.77618.83686 0 .48817.52506.88916 1.16427.88916.6392 0 1.16426-.40099 1.16426-.88916 0-.38356-.3196-.71482-.77618-.83686v-.57535h6.30072v.57535c-.45654.12204-.77614.4533-.77614.83686 0 .48817.52506.88916 1.16424.88916.6392 0 1.1643-.40099 1.1643-.88916 0-.38356-.3196-.71482-.7762-.83686v-.57535h2.3286v9.11829H.776179z"/></svg>