<svg xmlns="http://www.w3.org/2000/svg" fill="none" viewBox="0 0 16 16">
  <path fill="#777" d="M2.34375 16H7.5625v-5.6875h-1.875v-1.875h1.875V6.09375C7.5625 4.80139 8.61389 3.75 9.90625 3.75H12.25v1.875h-1.875c-.51697 0-.9375.42053-.9375.9375v1.875h2.7279l-.3125 1.875H9.4375V16h4.2187C14.9486 16 16 14.9486 16 13.6562V2.34375C16 1.05139 14.9486 0 13.6562 0H2.34375C1.05139 0 0 1.05139 0 2.34375V13.6562C0 14.9486 1.05139 16 2.34375 16zM.9375 2.34375c0-.77539.63086-1.40625 1.40625-1.40625H13.6562c.7754 0 1.4063.63086 1.4063 1.40625V13.6562c0 .7754-.6309 1.4063-1.4063 1.4063H10.375V11.25h2.2721l.625-3.75H10.375v-.9375h2.8125v-3.75H9.90625c-1.80933 0-3.28125 1.47192-3.28125 3.28125V7.5H4.75v3.75h1.875v3.8125H2.34375c-.77539 0-1.40625-.6309-1.40625-1.4063V2.34375z"/>
</svg>
