<svg xmlns="http://www.w3.org/2000/svg" fill="none" viewBox="0 0 24 24"><path fill="#000" fill-rule="evenodd" d="M6.59999 19.6667C6.29114 18.1452 4.94597 17 3.33333 17 1.49238 17 0 18.4924 0 20.3333c0 1.841 1.49238 3.3334 3.33333 3.3334 1.61264 0 2.95781-1.1452 3.26666-2.6667H24v-1.3333H6.59999zm-1.26666.6666c0 1.1046-.89543 2-2 2s-2-.8954-2-2c0-1.1045.89543-2 2-2s2 .8955 2 2z" clip-rule="evenodd"/><path fill="#000" d="M21.2667 11.6667H24V13h-2.7333c-.3089 1.5215-1.6541 2.6667-3.2667 2.6667-1.6126 0-2.9578-1.1452-3.2667-2.6667H0v-1.3333h14.7333C15.0422 10.1452 16.3874 9 18 9c1.6126 0 2.9578 1.1452 3.2667 2.6667z"/><path fill="#000" fill-rule="evenodd" d="M6.59999 3.66667C6.29114 2.14517 4.94597 1 3.33333 1 1.49238 1 0 2.49238 0 4.33333s1.49238 3.33334 3.33333 3.33334c1.61264 0 2.95781-1.14518 3.26666-2.66667H24V3.66667H6.59999zm-1.26666.66666c0 1.10457-.89543 2-2 2s-2-.89543-2-2 .89543-2 2-2 2 .89543 2 2z" clip-rule="evenodd"/></svg>