<svg xmlns="http://www.w3.org/2000/svg" fill="none" viewBox="0 0 16 16">
  <path fill="#777" d="M2.34375 16H13.6562C14.9486 16 16 14.9486 16 13.6562V2.34375C16 1.05139 14.9486 0 13.6562 0H2.34375C1.05139 0 0 1.05139 0 2.34375V13.6562C0 14.9486 1.05139 16 2.34375 16zM.9375 2.34375c0-.77539.63086-1.40625 1.40625-1.40625H13.6562c.7754 0 1.4063.63086 1.4063 1.40625V13.6562c0 .7754-.6309 1.4063-1.4063 1.4063H2.34375c-.77539 0-1.40625-.6309-1.40625-1.4063V2.34375z"/>
  <path fill="#777" d="M8 12.2188c2.3262 0 4.2188-1.8926 4.2188-4.2188 0-2.32617-1.8926-4.21875-4.2188-4.21875-2.32617 0-4.21875 1.89258-4.21875 4.21875 0 2.3262 1.89258 4.2188 4.21875 4.2188zm0-7.50005c1.80933 0 3.2812 1.47192 3.2812 3.28125S9.80933 11.2812 8 11.2812 4.71875 9.80933 4.71875 8 6.19067 4.71875 8 4.71875zM12.6875 4.71875c.7754 0 1.4063-.63086 1.4063-1.40625s-.6309-1.40625-1.4063-1.40625c-.7754 0-1.4063.63086-1.4063 1.40625s.6309 1.40625 1.4063 1.40625zm0-1.875c.2584 0 .4687.21033.4687.46875s-.2103.46875-.4687.46875-.4687-.21033-.4687-.46875.2103-.46875.4687-.46875z"/>
</svg>
