<svg xmlns="http://www.w3.org/2000/svg" fill="none" viewBox="0 0 24 24"><path fill="#000" fill-rule="evenodd" d="M3.15627 10.1471c.10405.5237.2579 1.0433.4616 1.5574.20349.514.49224.9687.8664 1.3629.37394.3946.80247.6632 1.28538.8072.14205.0292.22235.0433.24137.0433.20822 0 .38358-.2158.52555-.6484.14203-.4331.2131-.7835.2131-1.0538 0-.0858-.05925-.2329-.17755-.4394-.1185-.207-.24634-.4255-.38349-.6561-.13738-.2309-.2652-.5429-.38349-.9374-.1185-.39417-.17752-.80316-.17752-1.22621 0-1.91344.63426-3.4929 1.90316-4.73751 1.26877-1.24506 2.84992-1.86816 4.74382-1.86816 1.6665 0 3.0182.46432 4.0549 1.39178 1.0369.92867 1.5553 2.22341 1.5553 3.88746 0 .45191-.0308.93028-.0923 1.4347-.0617.50442-.1563 1.03894-.2841 1.60144-.1278.5618-.3078 1.0935-.5397 1.5935-.2321.4992-.4971.9568-.7954 1.3702-.2982.4134-.6699.7402-1.1149.9807-.4452.2403-.9281.3605-1.4487.3605-.6061 0-1.1221-.2001-1.5481-.5986-.4261-.3994-.6392-.9018-.6392-1.5069 0-.5962.2082-1.4956.6249-2.6978.4166-1.20169.625-2.11953.625-2.75466 0-.59625-.1611-1.08826-.4829-1.4776-.322-.39055-.7719-.58462-1.3493-.58462-.7576 0-1.3826.35086-1.87476 1.05257-.49251.70209-.73856 1.45232-.73856 2.25066 0 .99924.15131 1.81205.45448 2.43755-.0664.2879-.31251 1.2643-.73856 2.9275-.42613 1.6637-.74104 3.045-.94453 4.1465-.2037 1.1011-.30536 2.0935-.30536 2.9781 0 .2983.07107 1.2021.21304 2.7117L7.03366 24l.19891-.0726c.35017-.4811.64373-.8962.88053-1.247.23662-.3517.45456-.7238.65336-1.1179.19888-.3942.35018-.6949.45447-.9014.10408-.2069.22725-.5482.36928-1.0241.14205-.4764.23905-.8172.29117-1.0241.05195-.2065.16332-.6632.33382-1.3701.1704-.7066.3029-1.2479.3977-1.6224.2745.5381.729.9612 1.3635 1.2695.6342.3068 1.2733.4611 1.9174.4611.9751 0 1.8698-.1852 2.6843-.5553.8142-.3701 1.5006-.8657 2.0595-1.4857.5585-.6203 1.0319-1.3392 1.4202-2.1564.3882-.8172.6723-1.6677.8522-2.553.1798-.88416.2699-1.78795.2699-2.71139 0-1.53895-.4026-2.91791-1.2073-4.13888-.8049-1.22097-1.8512-2.15163-3.1388-2.791188C15.5459.319586 14.1541 0 12.6581 0c-.9754 0-1.9316.124697-2.86898.37491-.93747.250596-1.81341.62512-2.62762 1.12514-.81444.50002-1.53388 1.09105-2.15884 1.77432-.62493.68285-1.1149 1.4828-1.46999 2.40143C3.17761 6.59364 3 7.57203 3 8.61016c0 .50002.05196 1.01285.15627 1.53694z" clip-rule="evenodd"/></svg>