<svg xmlns="http://www.w3.org/2000/svg" fill="none" viewBox="0 0 24 24"><path fill="#000" d="M11.2636 7.75444c-.6178-.61778-.6178-1.61938 0-2.23716l.0539-.05393c.6178-.61777 1.6194-.61777 2.2372 0l9.982 9.98195c.6177.6178.6177 1.6194 0 2.2372l-.054.0539c-.6177.6178-1.6193.6178-2.2371 0l-9.982-9.98196z"/><path fill="#000" d="M10.4453 5.46333c.6178-.61777 1.6194-.61777 2.2372 0l.0539.05393c.6178.61778.6178 1.61938 0 2.23716L2.75442 17.7364c-.61778.6178-1.61938.6178-2.237156 0l-.053935-.0539c-.617772-.6178-.617772-1.6194.000001-2.2372l9.98197-9.98197z"/></svg>