<svg width="13" height="13" viewBox="0 0 13 13" fill="none" xmlns="http://www.w3.org/2000/svg">
<mask id="path-1-inside-1" fill="white">
<path d="M12.9248 11.4716L9.02909 7.57414C10.5002 5.29717 9.8475 2.25832 7.57137 0.786701C5.29524 -0.684916 2.25748 -0.0320168 0.78641 2.24496C-0.684663 4.52193 -0.0320048 7.56081 2.24413 9.0324C3.86741 10.0819 5.95534 10.0804 7.57715 9.02864L11.4721 12.9248C11.5724 13.0251 11.735 13.0251 11.8353 12.9248L12.9248 11.8349C13.0251 11.7345 13.0251 11.5719 12.9248 11.4716ZM1.84635 8.01966C0.140333 6.31478 0.138889 3.54922 1.84314 1.84257C3.54739 0.135921 6.31193 0.134476 8.01794 1.83936C9.52623 3.34662 9.72586 5.72313 8.49024 7.46109C8.35026 7.66034 8.19337 7.84716 8.02125 8.0194C7.93563 8.10506 7.84583 8.18744 7.75183 8.26657C7.65783 8.34571 7.56151 8.4198 7.46289 8.48882C5.72932 9.73254 3.34969 9.53377 1.84635 8.01966ZM11.6535 12.3798L8.00148 8.72648C8.01252 8.71749 8.02228 8.70696 8.03332 8.69796C8.15574 8.59892 8.27308 8.4938 8.38494 8.38297C8.49615 8.27171 8.59991 8.15327 8.69931 8.03174C8.70855 8.02069 8.71908 8.01093 8.72807 7.99962L12.3801 11.6532L11.6535 12.3798Z"/>
</mask>
<path d="M12.9248 11.4716L9.02909 7.57414C10.5002 5.29717 9.8475 2.25832 7.57137 0.786701C5.29524 -0.684916 2.25748 -0.0320168 0.78641 2.24496C-0.684663 4.52193 -0.0320048 7.56081 2.24413 9.0324C3.86741 10.0819 5.95534 10.0804 7.57715 9.02864L11.4721 12.9248C11.5724 13.0251 11.735 13.0251 11.8353 12.9248L12.9248 11.8349C13.0251 11.7345 13.0251 11.5719 12.9248 11.4716ZM1.84635 8.01966C0.140333 6.31478 0.138889 3.54922 1.84314 1.84257C3.54739 0.135921 6.31193 0.134476 8.01794 1.83936C9.52623 3.34662 9.72586 5.72313 8.49024 7.46109C8.35026 7.66034 8.19337 7.84716 8.02125 8.0194C7.93563 8.10506 7.84583 8.18744 7.75183 8.26657C7.65783 8.34571 7.56151 8.4198 7.46289 8.48882C5.72932 9.73254 3.34969 9.53377 1.84635 8.01966ZM11.6535 12.3798L8.00148 8.72648C8.01252 8.71749 8.02228 8.70696 8.03332 8.69796C8.15574 8.59892 8.27308 8.4938 8.38494 8.38297C8.49615 8.27171 8.59991 8.15327 8.69931 8.03174C8.70855 8.02069 8.71908 8.01093 8.72807 7.99962L12.3801 11.6532L11.6535 12.3798Z" stroke="#777777" stroke-width="2" mask="url(#path-1-inside-1)"/>
</svg>
