<svg xmlns="http://www.w3.org/2000/svg" fill="none" viewBox="0 0 11 16">
  <path fill="#777" d="M2.8125 0V1.40833C2.8114 2.69153 1.76807 3.75.46875 3.75H0V7.5h1.875v3.3438C1.875 13.6869 4.18811 16 7.03125 16h3.28125v-4.6875H7.03125c-.25842 0-.46875-.2103-.46875-.4687V7.5h3.75V3.75h-3.75V0h-3.75zM9.375 4.6875v1.875h-3.75v4.2813c0 .7753.63086 1.4062 1.40625 1.4062H9.375v2.8125H7.03125c-2.32617 0-4.21875-1.8926-4.21875-4.2187V6.5625H.9375V4.65417c.65442-.09399 1.24719-.38195 1.7179-.80346l.00097.00122C3.32324 3.255 3.75 2.37793 3.75 1.40625V.9375h1.875v3.75h3.75z"/>
</svg>
