<svg xmlns="http://www.w3.org/2000/svg" fill="none" viewBox="0 0 16 14">
  <path fill="#777" d="M16 2.21764c-1.0065.04639-.9845.0426-1.0983.05212l.5961-1.702267s-1.8606.684447-2.3323.806887C11.9268.260975 10.0854.211781 8.76904 1.02086c-1.078.66272-1.65661 1.80078-1.46362 3.13098C5.2074 3.86071 3.4397 2.8662 2.04407 1.18969L1.60266.659534l-.32983.605716c-.416873.76538-.555301 1.6405-.389896 2.46411.067872.33789.183226.66015.343016.96191l-.37866-.14673-.044922.63269c-.045532.6427.168457 1.39295.572512 2.00672.11377.17285.26025.36267.44592.54992l-.19568-.03002.23877.72497c.31384.95252.9657 1.68948 1.81165 2.09908-.84485.3586-1.52735.5873-2.64917.9563L0 11.8216l.947998.5184c.361452.1976 1.638672.8576 2.900632 1.0556 2.80518.44 5.9635.0817 8.08977-1.8332 1.7908-1.61295 2.3785-3.90726 2.2564-6.29483-.0184-.36145.0806-.70642.2788-.9712.3971-.53015 1.524-2.07519 1.5264-2.07873zm-2.276 1.51721c-.3292.43958-.4941 1.00098-.4646 1.58057.1232 2.40832-.5321 4.276-1.9478 5.55088-1.65364 1.4894-4.321 2.074-7.31783 1.6039-.54272-.0851-1.10363-.2756-1.56787-.4659.94055-.3236 1.66687-.6121 2.83985-1.1673l1.63745-.775-1.80786-.11572c-.86597-.05542-1.58704-.4751-2.03028-1.1565.23535-.01367.46228-.05176.68824-.11474l1.72424-.48023-1.73865-.42578c-.84485-.20691-1.32641-.7124-1.58166-1.1001-.16761-.25476-.2771-.51574-.34278-.75634.17432.04675.37757.08007.70533.11254l1.60925.15918L2.854 5.18969c-.9187-.71656-1.28686-1.7931-1.01696-2.82801 2.86718 2.97388 6.23364 2.75037 6.5725 2.82898-.07458-.72449-.07653-.72619-.09606-.79516-.43396-1.53406.51709-2.31299.94604-2.57666.89598-.55066 2.31828-.63367 3.30338.27356.2127.1958.5005.27282.7697.20593.2417-.06006.4401-.12366.6343-.19287L13.5626 3.26l.5161.00036c-.0974.13062-.2142.28699-.3547.47449z"/>
</svg>
