<svg xmlns="http://www.w3.org/2000/svg" fill="none" viewBox="0 0 24 24"><circle cx="11.9709" cy="5.69766" r="5.19766" stroke="#000"/><path stroke="#000" d="M21.4418 19.4361c0 1.2712-.2656 2.1029-.6839 2.6617-.415.5546-1.0288.905-1.8603 1.1175-.8398.2146-1.8629.2785-3.048.2843-.5895.0028-1.2097-.0085-1.8598-.0208l-.0443-.0008c-.6347-.012-1.2965-.0244-1.9746-.0244-.6781 0-1.3399.0124-1.97461.0244l-.04429.0008c-.65009.0123-1.27025.0236-1.85978.0208-1.18509-.0058-2.20822-.0697-3.04802-.2843-.83145-.2125-1.44529-.5629-1.86034-1.1175C2.76562 21.539 2.5 20.7073 2.5 19.4361c0-5.0563 4.22622-9.1802 9.4709-9.1802 5.2447 0 9.4709 4.1239 9.4709 9.1802z"/></svg>