<svg width="14" height="14" viewBox="0 0 14 14" fill="none" xmlns="http://www.w3.org/2000/svg">
<path d="M13.2765 5.25437L13.2763 5.25435L9.23491 4.87148L8.93388 4.84296L8.81933 4.56312L7.22248 0.661906C7.22242 0.661769 7.22237 0.661632 7.22231 0.661495C7.17742 0.552788 7.08553 0.5 7.00001 0.5C6.91412 0.5 6.82266 0.553069 6.77859 0.660883L6.7785 0.661108L5.18133 4.56312L5.06678 4.84297L4.76574 4.87148L0.724485 5.25428C0.724433 5.25428 0.724382 5.25429 0.72433 5.25429C0.638922 5.26258 0.549783 5.3253 0.513845 5.43908C0.477997 5.55482 0.514184 5.67576 0.59122 5.74629C0.591233 5.7463 0.591245 5.74631 0.591257 5.74632L3.64618 8.54161L3.85837 8.73576L3.79722 9.01679L2.89658 13.1562C2.89657 13.1562 2.89657 13.1562 2.89657 13.1563C2.87032 13.2776 2.91792 13.3922 2.99839 13.453L2.99926 13.4536C3.04173 13.4858 3.08834 13.5 3.13359 13.5C3.17223 13.5 3.21238 13.4894 3.25044 13.4657C3.25045 13.4657 3.25045 13.4657 3.25046 13.4657L6.73533 11.2913L7.00003 11.1261L7.26472 11.2913L10.7489 13.4656C10.828 13.515 10.9243 13.5115 11.0012 13.4533L11.0016 13.453C11.082 13.3923 11.1297 13.2777 11.1035 13.1564C11.1034 13.1563 11.1034 13.1562 11.1034 13.1562L10.2028 9.01679L10.1417 8.73576L10.3539 8.54161L13.4087 5.74639L13.2765 5.25437ZM13.2765 5.25437C13.3616 5.2624 13.4506 5.32496 13.486 5.43859M13.2765 5.25437L13.486 5.43859M13.486 5.43859C13.5221 5.55502 13.4859 5.67557 13.4088 5.74629L13.486 5.43859Z" stroke="#C2A661"/>
</svg>
