<svg viewBox="0 0 24 24" xmlns="http://www.w3.org/2000/svg">
<path fill-rule="evenodd" clip-rule="evenodd" d="M19.9915 9.99586C19.9915 4.47562 15.5162 0 9.99575 0C4.47524 0 0 4.47562 0 9.99586C0 15.5165 4.47524 19.9922 9.99575 19.9922C12.4061 19.9922 14.6172 19.1389 16.3436 17.718L22.6254 24L24 22.626L17.718 16.3435C19.1385 14.6171 19.9915 12.4061 19.9915 9.99586ZM17.9924 9.99538C17.9924 5.57985 14.4122 1.99926 9.9958 1.99926C5.57942 1.99926 1.99922 5.57985 1.99922 9.99538C1.99922 14.4118 5.57942 17.9934 9.9958 17.9934C14.4122 17.9934 17.9924 14.4118 17.9924 9.99538ZM10.9953 8.99644H13.9941V10.9957H10.9953V13.9944H8.99618V10.9957H5.99745V8.99644H8.99618V5.99778H10.9953V8.99644Z"/>
</svg>
