<svg xmlns="http://www.w3.org/2000/svg" viewBox="0 0 98 14"><path fill="#1c1c1c" d="M7.60875 10.082c0 .4278-.08204.8291-.2461 1.2041-.1582.375-.37793.7032-.65918.9844-.28125.2813-.60937.5039-.98437.668-.375.1582-.77637.2373-1.2041.2373h-.89649c-.42773 0-.83203-.0791-1.21289-.2373-.375-.1641-.70312-.3867-.98437-.668-.28125-.2812-.503911-.6094-.667973-.9844-.158203-.375-.237305-.7763-.237305-1.2041V3.31445c0-.42773.079102-.8291.237305-1.2041.164062-.375.386723-.70312.667973-.98437.28125-.281253.60937-.50098.98437-.659183.38086-.164063.78516-.246094 1.21289-.246094H4.515c.42773 0 .8291.082031 1.2041.246094.375.158203.70312.37793.98437.659183.28125.28125.50098.60937.65918.98437.16406.375.2461.77637.2461 1.2041v.50977L6.47496 4v-.68555c0-.28125-.05274-.54199-.15821-.78222-.10547-.2461-.24902-.45996-.43066-.64161-.18164-.18164-.39551-.32519-.6416-.43066-.24024-.10547-.50098-.1582-.78223-.1582h-.79101c-.28125 0-.54493.05273-.79102.1582-.24023.10547-.4541.24902-.6416.43066-.18164.18165-.3252.39551-.43067.64161-.10546.24023-.1582.50097-.1582.78222V10.082c0 .2813.05274.545.1582.791.10547.2403.24903.4541.43067.6416.1875.1817.40137.3252.6416.4307.24609.1055.50977.1582.79102.1582h.79101c.28125 0 .54199-.0527.78223-.1582.24609-.1055.45996-.249.6416-.4307.18164-.1875.32519-.4013.43066-.6416.10547-.246.15821-.5097.15821-.791v-.68552l1.13379.18457v.50095zM22.5438 13l-3.4189-5.37891h-1.5557V13h-1.1338V.396484h3.999c.4278 0 .8291.082032 1.2041.246094.375.158203.7032.377932.9844.659182.2813.28125.501.6123.6592.99316.1641.375.2461.77637.2461 1.2041v1.01953c0 .42774-.082.83204-.2461 1.2129-.1582.375-.3779.70312-.6592.98437-.2812.28125-.6094.50391-.9844.66797-.375.1582-.7763.2373-1.2041.2373L23.8534 13h-1.3096zm-.1494-9.50098c0-.28125-.0527-.54199-.1582-.78222-.1055-.2461-.249-.45996-.4307-.6416-.1816-.1875-.3955-.33399-.6416-.43946-.2402-.10547-.5009-.1582-.7822-.1582h-2.8125v5.0625h2.8125c.2813 0 .542-.05274.7822-.1582.2461-.10547.46-.24903.6416-.43067.1817-.1875.3252-.40137.4307-.6416.1055-.24609.1582-.50977.1582-.79102V3.49902zM39.4125 10.082c0 .4278-.082.8291-.2461 1.2041-.1582.375-.3779.7032-.6592.9844-.2812.2813-.6094.5039-.9844.668-.375.1582-.7763.2373-1.2041.2373h-.8964c-.4278 0-.8321-.0791-1.2129-.2373-.375-.1641-.7032-.3867-.9844-.668-.2813-.2812-.5039-.6094-.668-.9844-.1582-.375-.2373-.7763-.2373-1.2041V.396484h1.1338V10.082c0 .2813.0527.545.1582.791.1055.2403.249.4541.4307.6416.1875.1817.4013.3252.6416.4307.2461.1055.5097.1582.791.1582h.791c.2813 0 .542-.0527.7822-.1582.2461-.1055.46-.249.6416-.4307.1817-.1875.3252-.4013.4307-.6416.1055-.246.1582-.5097.1582-.791V.396484h1.1338V10.082zM51.2978 10.2314l.0351.4659.0352-.4659L54.163.396484h1.1689L51.623 13h-.5977L47.3339.396484h1.1777l2.7862 9.834916zM70.3373 10.082c0 .4278-.082.8291-.2461 1.2041-.1582.375-.3779.7032-.6591.9844-.2813.2813-.6094.5039-.9844.668-.375.1582-.7764.2373-1.2041.2373h-.8965c-.4277 0-.832-.0791-1.2129-.2373-.375-.1641-.7031-.3867-.9844-.668-.2812-.2812-.5039-.6094-.6679-.9844-.1582-.375-.2373-.7763-.2373-1.2041V3.31445c0-.42773.0791-.8291.2373-1.2041.164-.375.3867-.70312.6679-.98437.2813-.281253.6094-.50098.9844-.659183.3809-.164063.7852-.246094 1.2129-.246094h.8965c.4277 0 .8291.082031 1.2041.246094.375.158203.7031.37793.9844.659183.2812.28125.5009.60937.6591.98437.1641.375.2461.77637.2461 1.2041V10.082zm-1.1338-6.76755c0-.28125-.0527-.54199-.1582-.78222-.1054-.2461-.249-.45996-.4306-.64161-.1817-.18164-.3955-.32519-.6416-.43066-.2403-.10547-.501-.1582-.7822-.1582h-.7911c-.2812 0-.5449.05273-.791.1582-.2402.10547-.4541.24902-.6416.43066-.1816.18165-.3252.39551-.4306.64161-.1055.24023-.1583.50097-.1583.78222V10.082c0 .2813.0528.545.1583.791.1054.2403.249.4541.4306.6416.1875.1817.4014.3252.6416.4307.2461.1055.5098.1582.791.1582h.7911c.2812 0 .5419-.0527.7822-.1582.2461-.1055.4599-.249.6416-.4307.1816-.1875.3252-.4013.4306-.6416.1055-.246.1582-.5097.1582-.791V3.31445zM79.5244 13V.396484h1.1338V13h-1.1338zM95.9536 13l-3.419-5.37891H90.979V13h-1.1338V.396484h3.999c.4277 0 .8291.082032 1.2041.246094.375.158203.7031.377932.9844.659182.2812.28125.501.6123.6592.99316.164.375.2461.77637.2461 1.2041v1.01953c0 .42774-.0821.83204-.2461 1.2129-.1582.375-.378.70312-.6592.98437-.2813.28125-.6094.50391-.9844.66797-.375.1582-.7764.2373-1.2041.2373L97.2631 13h-1.3095zm-.1494-9.50098c0-.28125-.0528-.54199-.1582-.78222-.1055-.2461-.2491-.45996-.4307-.6416-.1816-.1875-.3955-.33399-.6416-.43946-.2402-.10547-.501-.1582-.7822-.1582H90.979v5.0625h2.8125c.2812 0 .542-.05274.7822-.1582.2461-.10547.46-.24903.6416-.43067.1816-.1875.3252-.40137.4307-.6416.1054-.24609.1582-.50977.1582-.79102V3.49902z"/></svg>
